<svg width="28" height="28" viewBox="0 0 28 28" fill="none"
    xmlns="http://www.w3.org/2000/svg">
    <path d="M2.33301 19.8333V19.6581C2.33301 19.2889 2.33301 19.1042 2.36125 18.9244C2.38632 18.7647 2.42793 18.608 2.48539 18.4569C2.55011 18.2867 2.64171 18.1264 2.8249 17.8059L6.99967 10.5M2.33301 19.8333C2.33301 22.4107 4.42235 24.5 6.99967 24.5C9.577 24.5 11.6663 22.4107 11.6663 19.8333M2.33301 19.8333V19.6C2.33301 19.2733 2.33301 19.11 2.39659 18.9852C2.45251 18.8754 2.54175 18.7862 2.65151 18.7302C2.7763 18.6667 2.93964 18.6667 3.26634 18.6667H10.733C11.0597 18.6667 11.2231 18.6667 11.3478 18.7302C11.4576 18.7862 11.5468 18.8754 11.6028 18.9852C11.6663 19.11 11.6663 19.2733 11.6663 19.6V19.8333M6.99967 10.5L11.1744 17.8059C11.3576 18.1264 11.4492 18.2867 11.514 18.4569C11.5714 18.608 11.613 18.7647 11.6381 18.9244C11.6663 19.1042 11.6663 19.2889 11.6663 19.6581V19.8333M6.99967 10.5L20.9997 8.16667M16.333 17.5V17.3248C16.333 16.9555 16.333 16.7709 16.3612 16.591C16.3863 16.4313 16.4279 16.2747 16.4854 16.1236C16.5501 15.9534 16.6417 15.7931 16.8249 15.4725L20.9997 8.16667M16.333 17.5C16.333 20.0773 18.4223 22.1667 20.9997 22.1667C23.577 22.1667 25.6663 20.0773 25.6663 17.5M16.333 17.5V17.2667C16.333 16.94 16.333 16.7766 16.3966 16.6518C16.4525 16.5421 16.5418 16.4528 16.6515 16.3969C16.7763 16.3333 16.9396 16.3333 17.2663 16.3333H24.733C25.0597 16.3333 25.2231 16.3333 25.3478 16.3969C25.4576 16.4528 25.5468 16.5421 25.6028 16.6518C25.6663 16.7766 25.6663 16.94 25.6663 17.2667V17.5M20.9997 8.16667L25.1744 15.4725C25.3576 15.7931 25.4492 15.9534 25.514 16.1236C25.5714 16.2747 25.613 16.4313 25.6381 16.591C25.6663 16.7709 25.6663 16.9555 25.6663 17.3248V17.5M13.9997 3.5V9.33333" stroke="#715EFF" strokeWidth="2" strokeLinecap="round" strokeLinejoin="round" />
</svg>